<svg width="40" height="40" viewBox="0 0 40 40" fill="none" xmlns="http://www.w3.org/2000/svg">
<path d="M19.999 25C21.7249 25 23.124 23.6009 23.124 21.875C23.124 20.1491 21.7249 18.75 19.999 18.75C18.2731 18.75 16.874 20.1491 16.874 21.875C16.874 23.6009 18.2731 25 19.999 25Z" stroke="white" stroke-width="1.5" stroke-linecap="round" stroke-linejoin="round"/>
<path d="M19.999 25V28.75" stroke="white" stroke-width="1.5" stroke-linecap="round" stroke-linejoin="round"/>
<path d="M32.499 13.75H7.49902C6.80867 13.75 6.24902 14.3096 6.24902 15V32.5C6.24902 33.1904 6.80867 33.75 7.49902 33.75H32.499C33.1894 33.75 33.749 33.1904 33.749 32.5V15C33.749 14.3096 33.1894 13.75 32.499 13.75Z" stroke="white" stroke-width="1.5" stroke-linecap="round" stroke-linejoin="round"/>
<path d="M14.374 13.75V8.125C14.374 6.63316 14.9667 5.20242 16.0215 4.14752C17.0764 3.09263 18.5072 2.5 19.999 2.5C21.4909 2.5 22.9216 3.09263 23.9765 4.14752C25.0314 5.20242 25.624 6.63316 25.624 8.125V13.75" stroke="white" stroke-width="1.5" stroke-linecap="round" stroke-linejoin="round"/>
</svg>
